<svg width="898" height="890" viewBox="0 0 898 890" fill="none" xmlns="http://www.w3.org/2000/svg">
<rect x="7.34656" width="890" height="890" fill="white"/>
<path d="M715.456 116.876H215.765C202.712 116.876 191.157 125.317 187.187 137.752L96.9259 420.449L12.4919 684.897C6.31242 704.251 20.7538 724.021 41.0705 724.021H601.614C655.147 724.021 702.836 690.195 720.531 639.672L744.689 570.699C750.398 554.4 749.691 536.539 742.713 520.741C726.273 483.524 679.767 470.843 646.711 494.564L507.885 594.187L495.736 418.489C498.7 369.663 541.199 332.801 589.953 336.768L746.401 349.497C787.36 352.83 825.349 327.917 838.618 289.024C867.421 204.596 804.663 116.876 715.456 116.876Z" fill="black"/>
<ellipse cx="579.922" cy="419.94" rx="36.4885" ry="38.094" fill="black"/>
<rect width="64.4365" height="731.692" rx="26" transform="matrix(0.941719 0.336402 -0.311444 0.950265 331.231 53)" fill="white"/>
<path d="M267.582 725.995C267.582 826.514 198.625 831 102.343 831C6.06133 831 11.3473 826.514 11.3473 725.995C11.3473 625.477 -3.03359 543.99 93.2484 543.99C189.53 543.99 267.582 625.477 267.582 725.995Z" fill="white"/>
<ellipse cx="82.5624" cy="659.334" rx="51.3542" ry="53.6138" fill="black"/>
</svg>
