<svg width="898" height="890" viewBox="0 0 898 890" fill="none" xmlns="http://www.w3.org/2000/svg">
  <!-- Removed the black background rect -->
  <path d="M716.11 116.876H216.419C203.366 116.876 191.81 125.317 187.84 137.752L97.5794 420.449L13.1454 684.897C6.96587 704.251 21.4072 724.021 41.724 724.021H602.268C655.801 724.021 703.489 690.195 721.185 639.672L745.342 570.699C751.051 554.4 750.345 536.539 743.366 520.741C726.927 483.524 680.421 470.843 647.365 494.564L508.539 594.187L496.389 418.489C499.353 369.663 541.852 332.801 590.607 336.768L747.054 349.497C788.013 352.83 826.003 327.917 839.271 289.024C868.074 204.596 805.317 116.876 716.11 116.876Z" fill="#F3C6C6"/>
  <ellipse cx="580.576" cy="419.94" rx="36.4885" ry="38.094" fill="#F3C6C6"/>
  <!-- Made these transparent by changing fill to "none" or you can remove them entirely -->
  <rect width="64.4365" height="731.692" rx="26" transform="matrix(0.941719 0.336402 -0.311444 0.950265 331.884 53)" fill="none"/>
  <path d="M268.236 725.995C268.236 826.514 199.279 831 102.997 831C6.71477 831 12.0007 826.514 12.0007 725.995C12.0007 625.477 -2.38014 543.99 93.9018 543.99C190.184 543.99 268.236 625.477 268.236 725.995Z" fill="none"/>
  <ellipse cx="83.2159" cy="659.334" rx="51.3542" ry="53.6138" fill="#F3C6C6"/>
</svg>