<svg width="22" height="24" viewBox="0 0 22 24" fill="none" xmlns="http://www.w3.org/2000/svg">
<g clip-path="url(#clip0_26_284)">
<path d="M10.9956 0.371582C4.92067 0.371582 0 5.29267 0 11.3681H21.9912C21.9912 5.29267 17.0705 0.371582 10.9956 0.371582Z" fill="white"/>
<path d="M20.7762 12.6235C20.7762 18.0306 16.382 22.4252 10.9956 22.4252C5.60916 22.4252 1.21498 18.0306 1.21498 12.6235H0C0 18.6989 4.94093 23.62 10.9956 23.62C17.0502 23.62 21.9912 18.6989 21.9912 12.6235H20.7762Z" fill="white"/>
<path d="M10.9956 20.8658C15.5315 20.8658 19.2372 17.1801 19.2372 12.6235H18.0222C18.0222 16.5118 14.8835 19.671 10.9956 19.671C7.10766 19.671 3.96895 16.5118 3.96895 12.6235H2.75397C2.75397 17.1801 6.45966 20.8658 10.9956 20.8658Z" fill="white"/>
</g>
<defs>
<clipPath id="clip0_26_284">
<rect width="22" height="23.2571" fill="white" transform="translate(0 0.371582)"/>
</clipPath>
</defs>
</svg>
